<?xml version="1.0" encoding="UTF-8"?>
<svg xmlns="http://www.w3.org/2000/svg" xmlns:xlink="http://www.w3.org/1999/xlink" width="5466.87" height="3352.46" viewBox="0 0 5466.87 3352.46">
<defs>
<linearGradient id="linear-pattern-0" gradientUnits="userSpaceOnUse" x1="0" y1="0" x2="1" y2="0" gradientTransform="matrix(5466.87, 0, 0, 5466.87, 0, 1676.23)">
<stop offset="0" stop-color="rgb(67.918396%, 81.14624%, 93.667603%)" stop-opacity="1"/>
<stop offset="0.015625" stop-color="rgb(68.106079%, 81.359863%, 93.759155%)" stop-opacity="1"/>
<stop offset="0.03125" stop-color="rgb(68.481445%, 81.628418%, 93.862915%)" stop-opacity="1"/>
<stop offset="0.046875" stop-color="rgb(68.858337%, 81.735229%, 93.885803%)" stop-opacity="1"/>
<stop offset="0.0546875" stop-color="rgb(69.224548%, 81.912231%, 93.943787%)" stop-opacity="1"/>
<stop offset="0.0625" stop-color="rgb(69.592285%, 82.168579%, 94.041443%)" stop-opacity="1"/>
<stop offset="0.0703125" stop-color="rgb(69.88678%, 82.342529%, 94.104004%)" stop-opacity="1"/>
<stop offset="0.078125" stop-color="rgb(70.08667%, 82.409668%, 94.120789%)" stop-opacity="1"/>
<stop offset="0.09375" stop-color="rgb(70.368958%, 82.640076%, 94.212341%)" stop-opacity="1"/>
<stop offset="0.101562" stop-color="rgb(70.727539%, 82.907104%, 94.316101%)" stop-opacity="1"/>
<stop offset="0.109375" stop-color="rgb(71.087646%, 83.023071%, 94.343567%)" stop-opacity="1"/>
<stop offset="0.117188" stop-color="rgb(71.391296%, 83.108521%, 94.360352%)" stop-opacity="1"/>
<stop offset="0.125" stop-color="rgb(71.600342%, 83.16803%, 94.372559%)" stop-opacity="1"/>
<stop offset="0.140625" stop-color="rgb(71.884155%, 83.392334%, 94.46106%)" stop-opacity="1"/>
<stop offset="0.148438" stop-color="rgb(72.235107%, 83.659363%, 94.564819%)" stop-opacity="1"/>
<stop offset="0.15625" stop-color="rgb(72.58606%, 83.782959%, 94.595337%)" stop-opacity="1"/>
<stop offset="0.164062" stop-color="rgb(72.898865%, 83.929443%, 94.642639%)" stop-opacity="1"/>
<stop offset="0.171875" stop-color="rgb(73.118591%, 84.130859%, 94.723511%)" stop-opacity="1"/>
<stop offset="0.1875" stop-color="rgb(73.402405%, 84.32312%, 94.795227%)" stop-opacity="1"/>
<stop offset="0.195312" stop-color="rgb(73.745728%, 84.449768%, 94.828796%)" stop-opacity="1"/>
<stop offset="0.203125" stop-color="rgb(74.087524%, 84.547424%, 94.848633%)" stop-opacity="1"/>
<stop offset="0.210938" stop-color="rgb(74.411011%, 84.689331%, 94.891357%)" stop-opacity="1"/>
<stop offset="0.21875" stop-color="rgb(74.639893%, 84.887695%, 94.970703%)" stop-opacity="1"/>
<stop offset="0.234375" stop-color="rgb(74.925232%, 85.089111%, 95.045471%)" stop-opacity="1"/>
<stop offset="0.25" stop-color="rgb(75.305176%, 85.365295%, 95.149231%)" stop-opacity="1"/>
<stop offset="0.257812" stop-color="rgb(75.637817%, 85.630798%, 95.252991%)" stop-opacity="1"/>
<stop offset="0.265625" stop-color="rgb(75.970459%, 85.769653%, 95.292664%)" stop-opacity="1"/>
<stop offset="0.273438" stop-color="rgb(76.304626%, 85.905457%, 95.330811%)" stop-opacity="1"/>
<stop offset="0.28125" stop-color="rgb(76.547241%, 86.099243%, 95.405579%)" stop-opacity="1"/>
<stop offset="0.296875" stop-color="rgb(76.834106%, 86.314392%, 95.48645%)" stop-opacity="1"/>
<stop offset="0.304688" stop-color="rgb(77.157593%, 86.456299%, 95.529175%)" stop-opacity="1"/>
<stop offset="0.3125" stop-color="rgb(77.479553%, 86.549377%, 95.547485%)" stop-opacity="1"/>
<stop offset="0.320312" stop-color="rgb(77.822876%, 86.682129%, 95.584106%)" stop-opacity="1"/>
<stop offset="0.328125" stop-color="rgb(78.076172%, 86.871338%, 95.654297%)" stop-opacity="1"/>
<stop offset="0.34375" stop-color="rgb(78.364563%, 87.097168%, 95.739746%)" stop-opacity="1"/>
<stop offset="0.351562" stop-color="rgb(78.678894%, 87.272644%, 95.799255%)" stop-opacity="1"/>
<stop offset="0.359375" stop-color="rgb(78.996277%, 87.475586%, 95.870972%)" stop-opacity="1"/>
<stop offset="0.367188" stop-color="rgb(79.351807%, 87.728882%, 95.96405%)" stop-opacity="1"/>
<stop offset="0.375" stop-color="rgb(79.612732%, 87.867737%, 96.009827%)" stop-opacity="1"/>
<stop offset="0.390625" stop-color="rgb(79.898071%, 87.95166%, 96.026611%)" stop-opacity="1"/>
<stop offset="0.398438" stop-color="rgb(80.203247%, 88.059998%, 96.054077%)" stop-opacity="1"/>
<stop offset="0.40625" stop-color="rgb(80.509949%, 88.253784%, 96.121216%)" stop-opacity="1"/>
<stop offset="0.414062" stop-color="rgb(80.877686%, 88.519287%, 96.218872%)" stop-opacity="1"/>
<stop offset="0.421875" stop-color="rgb(81.149292%, 88.670349%, 96.269226%)" stop-opacity="1"/>
<stop offset="0.4375" stop-color="rgb(81.437683%, 88.856506%, 96.334839%)" stop-opacity="1"/>
<stop offset="0.453125" stop-color="rgb(81.82373%, 89.146423%, 96.44165%)" stop-opacity="1"/>
<stop offset="0.460938" stop-color="rgb(82.118225%, 89.309692%, 96.496582%)" stop-opacity="1"/>
<stop offset="0.46875" stop-color="rgb(82.411194%, 89.398193%, 96.513367%)" stop-opacity="1"/>
<stop offset="0.476562" stop-color="rgb(82.788086%, 89.51416%, 96.537781%)" stop-opacity="1"/>
<stop offset="0.484375" stop-color="rgb(83.071899%, 89.691162%, 96.598816%)" stop-opacity="1"/>
<stop offset="0.5" stop-color="rgb(83.364868%, 89.950562%, 96.697998%)" stop-opacity="1"/>
<stop offset="0.507812" stop-color="rgb(83.651733%, 90.122986%, 96.757507%)" stop-opacity="1"/>
<stop offset="0.515625" stop-color="rgb(83.940125%, 90.29541%, 96.815491%)" stop-opacity="1"/>
<stop offset="0.523438" stop-color="rgb(84.326172%, 90.585327%, 96.922302%)" stop-opacity="1"/>
<stop offset="0.53125" stop-color="rgb(84.620667%, 90.765381%, 96.983337%)" stop-opacity="1"/>
<stop offset="0.546875" stop-color="rgb(84.912109%, 90.856934%, 97.001648%)" stop-opacity="1"/>
<stop offset="0.554688" stop-color="rgb(85.197449%, 90.942383%, 97.018433%)" stop-opacity="1"/>
<stop offset="0.5625" stop-color="rgb(85.476685%, 91.107178%, 97.073364%)" stop-opacity="1"/>
<stop offset="0.570312" stop-color="rgb(85.853577%, 91.386414%, 97.175598%)" stop-opacity="1"/>
<stop offset="0.578125" stop-color="rgb(86.158752%, 91.5802%, 97.241211%)" stop-opacity="1"/>
<stop offset="0.59375" stop-color="rgb(86.462402%, 91.758728%, 97.30072%)" stop-opacity="1"/>
<stop offset="0.601562" stop-color="rgb(86.755371%, 92.008972%, 97.395325%)" stop-opacity="1"/>
<stop offset="0.609375" stop-color="rgb(87.026978%, 92.198181%, 97.462463%)" stop-opacity="1"/>
<stop offset="0.617188" stop-color="rgb(87.391663%, 92.327881%, 97.492981%)" stop-opacity="1"/>
<stop offset="0.625" stop-color="rgb(87.704468%, 92.492676%, 97.544861%)" stop-opacity="1"/>
<stop offset="0.640625" stop-color="rgb(88.021851%, 92.770386%, 97.648621%)" stop-opacity="1"/>
<stop offset="0.648438" stop-color="rgb(88.313293%, 92.971802%, 97.720337%)" stop-opacity="1"/>
<stop offset="0.65625" stop-color="rgb(88.572693%, 93.051147%, 97.735596%)" stop-opacity="1"/>
<stop offset="0.664062" stop-color="rgb(88.925171%, 93.159485%, 97.756958%)" stop-opacity="1"/>
<stop offset="0.671875" stop-color="rgb(89.248657%, 93.319702%, 97.80426%)" stop-opacity="1"/>
<stop offset="0.6875" stop-color="rgb(89.576721%, 93.60199%, 97.911072%)" stop-opacity="1"/>
<stop offset="0.703125" stop-color="rgb(89.968872%, 93.901062%, 98.017883%)" stop-opacity="1"/>
<stop offset="0.710938" stop-color="rgb(90.263367%, 94.136047%, 98.103333%)" stop-opacity="1"/>
<stop offset="0.71875" stop-color="rgb(90.516663%, 94.342041%, 98.179626%)" stop-opacity="1"/>
<stop offset="0.726562" stop-color="rgb(90.861511%, 94.488525%, 98.217773%)" stop-opacity="1"/>
<stop offset="0.734375" stop-color="rgb(91.192627%, 94.590759%, 98.239136%)" stop-opacity="1"/>
<stop offset="0.75" stop-color="rgb(91.526794%, 94.741821%, 98.280334%)" stop-opacity="1"/>
<stop offset="0.757812" stop-color="rgb(91.821289%, 94.969177%, 98.362732%)" stop-opacity="1"/>
<stop offset="0.765625" stop-color="rgb(92.066956%, 95.184326%, 98.442078%)" stop-opacity="1"/>
<stop offset="0.773438" stop-color="rgb(92.404175%, 95.335388%, 98.484802%)" stop-opacity="1"/>
<stop offset="0.78125" stop-color="rgb(92.747498%, 95.484924%, 98.526001%)" stop-opacity="1"/>
<stop offset="0.796875" stop-color="rgb(93.099976%, 95.779419%, 98.632812%)" stop-opacity="1"/>
<stop offset="0.804688" stop-color="rgb(93.395996%, 96.017456%, 98.718262%)" stop-opacity="1"/>
<stop offset="0.8125" stop-color="rgb(93.624878%, 96.089172%, 98.733521%)" stop-opacity="1"/>
<stop offset="0.820312" stop-color="rgb(93.94989%, 96.18988%, 98.753357%)" stop-opacity="1"/>
<stop offset="0.828125" stop-color="rgb(94.302368%, 96.334839%, 98.789978%)" stop-opacity="1"/>
<stop offset="0.84375" stop-color="rgb(94.665527%, 96.633911%, 98.898315%)" stop-opacity="1"/>
<stop offset="0.851562" stop-color="rgb(94.963074%, 96.882629%, 98.988342%)" stop-opacity="1"/>
<stop offset="0.859375" stop-color="rgb(95.184326%, 96.980286%, 99.015808%)" stop-opacity="1"/>
<stop offset="0.867188" stop-color="rgb(95.509338%, 97.200012%, 99.090576%)" stop-opacity="1"/>
<stop offset="0.875" stop-color="rgb(95.880127%, 97.477722%, 99.186707%)" stop-opacity="1"/>
<stop offset="0.890625" stop-color="rgb(96.246338%, 97.685242%, 99.252319%)" stop-opacity="1"/>
<stop offset="0.90625" stop-color="rgb(96.644592%, 97.998047%, 99.363708%)" stop-opacity="1"/>
<stop offset="0.914062" stop-color="rgb(96.943665%, 98.262024%, 99.459839%)" stop-opacity="1"/>
<stop offset="0.921875" stop-color="rgb(97.15271%, 98.327637%, 99.472046%)" stop-opacity="1"/>
<stop offset="0.929688" stop-color="rgb(97.45636%, 98.425293%, 99.491882%)" stop-opacity="1"/>
<stop offset="0.9375" stop-color="rgb(97.831726%, 98.556519%, 99.520874%)" stop-opacity="1"/>
<stop offset="0.953125" stop-color="rgb(98.217773%, 98.869324%, 99.630737%)" stop-opacity="1"/>
<stop offset="0.960938" stop-color="rgb(98.518372%, 99.142456%, 99.731445%)" stop-opacity="1"/>
<stop offset="0.96875" stop-color="rgb(98.719788%, 99.214172%, 99.74823%)" stop-opacity="1"/>
<stop offset="0.976562" stop-color="rgb(99.021912%, 99.411011%, 99.812317%)" stop-opacity="1"/>
<stop offset="0.984375" stop-color="rgb(99.41864%, 99.72229%, 99.920654%)" stop-opacity="1"/>
<stop offset="1" stop-color="rgb(99.807739%, 99.937439%, 99.987793%)" stop-opacity="1"/>
</linearGradient>
<clipPath id="clip-0">
<path clip-rule="nonzero" d="M 0 29 L 5466.871094 29 L 5466.871094 2943 L 0 2943 Z M 0 29 "/>
</clipPath>
<clipPath id="clip-1">
<path clip-rule="nonzero" d="M 0 179 L 5466.871094 179 L 5466.871094 3028 L 0 3028 Z M 0 179 "/>
</clipPath>
<clipPath id="clip-2">
<path clip-rule="nonzero" d="M 0 326 L 5466.871094 326 L 5466.871094 3112 L 0 3112 Z M 0 326 "/>
</clipPath>
<clipPath id="clip-3">
<path clip-rule="nonzero" d="M 0 468 L 5466.871094 468 L 5466.871094 3194 L 0 3194 Z M 0 468 "/>
</clipPath>
<clipPath id="clip-4">
<path clip-rule="nonzero" d="M 0 606 L 5466.871094 606 L 5466.871094 3274 L 0 3274 Z M 0 606 "/>
</clipPath>
<clipPath id="clip-5">
<path clip-rule="nonzero" d="M 0 740 L 5466.871094 740 L 5466.871094 3352 L 0 3352 Z M 0 740 "/>
</clipPath>
<clipPath id="clip-6">
<path clip-rule="nonzero" d="M 352 871 L 5466.871094 871 L 5466.871094 3352.460938 L 352 3352.460938 Z M 352 871 "/>
</clipPath>
<clipPath id="clip-7">
<path clip-rule="nonzero" d="M 614 999 L 5466.871094 999 L 5466.871094 3352.460938 L 614 3352.460938 Z M 614 999 "/>
</clipPath>
<clipPath id="clip-8">
<path clip-rule="nonzero" d="M 823 1123 L 5466.871094 1123 L 5466.871094 3352.460938 L 823 3352.460938 Z M 823 1123 "/>
</clipPath>
<clipPath id="clip-9">
<path clip-rule="nonzero" d="M 1004 1244 L 5466.871094 1244 L 5466.871094 3352.460938 L 1004 3352.460938 Z M 1004 1244 "/>
</clipPath>
<clipPath id="clip-10">
<path clip-rule="nonzero" d="M 1168 1362 L 5466.871094 1362 L 5466.871094 3352.460938 L 1168 3352.460938 Z M 1168 1362 "/>
</clipPath>
<clipPath id="clip-11">
<path clip-rule="nonzero" d="M 1319 1478 L 5466.871094 1478 L 5466.871094 3352.460938 L 1319 3352.460938 Z M 1319 1478 "/>
</clipPath>
<clipPath id="clip-12">
<path clip-rule="nonzero" d="M 1460 1590 L 5466.871094 1590 L 5466.871094 3352.460938 L 1460 3352.460938 Z M 1460 1590 "/>
</clipPath>
<clipPath id="clip-13">
<path clip-rule="nonzero" d="M 1594 1700 L 5466.871094 1700 L 5466.871094 3352.460938 L 1594 3352.460938 Z M 1594 1700 "/>
</clipPath>
<clipPath id="clip-14">
<path clip-rule="nonzero" d="M 1720 1808 L 5466.871094 1808 L 5466.871094 3352.460938 L 1720 3352.460938 Z M 1720 1808 "/>
</clipPath>
<clipPath id="clip-15">
<path clip-rule="nonzero" d="M 1841 1913 L 5466.871094 1913 L 5466.871094 3352.460938 L 1841 3352.460938 Z M 1841 1913 "/>
</clipPath>
<clipPath id="clip-16">
<path clip-rule="nonzero" d="M 1958 2015 L 5466.871094 2015 L 5466.871094 3352.460938 L 1958 3352.460938 Z M 1958 2015 "/>
</clipPath>
<clipPath id="clip-17">
<path clip-rule="nonzero" d="M 2076 2116 L 5466.871094 2116 L 5466.871094 3352.460938 L 2076 3352.460938 Z M 2076 2116 "/>
</clipPath>
<clipPath id="clip-18">
<path clip-rule="nonzero" d="M 2195 2214 L 5466.871094 2214 L 5466.871094 3352.460938 L 2195 3352.460938 Z M 2195 2214 "/>
</clipPath>
<clipPath id="clip-19">
<path clip-rule="nonzero" d="M 2314 2305 L 5466.871094 2305 L 5466.871094 3352.460938 L 2314 3352.460938 Z M 2314 2305 "/>
</clipPath>
<clipPath id="clip-20">
<path clip-rule="nonzero" d="M 2433 2374 L 5466.871094 2374 L 5466.871094 3352.460938 L 2433 3352.460938 Z M 2433 2374 "/>
</clipPath>
<clipPath id="clip-21">
<path clip-rule="nonzero" d="M 2553 2443 L 5466.871094 2443 L 5466.871094 3352.460938 L 2553 3352.460938 Z M 2553 2443 "/>
</clipPath>
<clipPath id="clip-22">
<path clip-rule="nonzero" d="M 2673 2512 L 5466.871094 2512 L 5466.871094 3352.460938 L 2673 3352.460938 Z M 2673 2512 "/>
</clipPath>
<clipPath id="clip-23">
<path clip-rule="nonzero" d="M 2794 2581 L 5466.871094 2581 L 5466.871094 3352.460938 L 2794 3352.460938 Z M 2794 2581 "/>
</clipPath>
<clipPath id="clip-24">
<path clip-rule="nonzero" d="M 2916 2650 L 5466.871094 2650 L 5466.871094 3352.460938 L 2916 3352.460938 Z M 2916 2650 "/>
</clipPath>
<clipPath id="clip-25">
<path clip-rule="nonzero" d="M 3038 2719 L 5466.871094 2719 L 5466.871094 3352.460938 L 3038 3352.460938 Z M 3038 2719 "/>
</clipPath>
<clipPath id="clip-26">
<path clip-rule="nonzero" d="M 3160 2787 L 5466.871094 2787 L 5466.871094 3352.460938 L 3160 3352.460938 Z M 3160 2787 "/>
</clipPath>
<clipPath id="clip-27">
<path clip-rule="nonzero" d="M 3284 2856 L 5466.871094 2856 L 5466.871094 3352.460938 L 3284 3352.460938 Z M 3284 2856 "/>
</clipPath>
<clipPath id="clip-28">
<path clip-rule="nonzero" d="M 3409 2925 L 5466.871094 2925 L 5466.871094 3352.460938 L 3409 3352.460938 Z M 3409 2925 "/>
</clipPath>
<clipPath id="clip-29">
<path clip-rule="nonzero" d="M 3536 2994 L 5466.871094 2994 L 5466.871094 3352.460938 L 3536 3352.460938 Z M 3536 2994 "/>
</clipPath>
<clipPath id="clip-30">
<path clip-rule="nonzero" d="M 3666 3063 L 5466.871094 3063 L 5466.871094 3352.460938 L 3666 3352.460938 Z M 3666 3063 "/>
</clipPath>
<clipPath id="clip-31">
<path clip-rule="nonzero" d="M 3801 3132 L 5466.871094 3132 L 5466.871094 3352.460938 L 3801 3352.460938 Z M 3801 3132 "/>
</clipPath>
<clipPath id="clip-32">
<path clip-rule="nonzero" d="M 3944 3201 L 4964 3201 L 4964 3352.460938 L 3944 3352.460938 Z M 3944 3201 "/>
</clipPath>
<clipPath id="clip-33">
<path clip-rule="nonzero" d="M 4105 3269 L 4761 3269 L 4761 3352.460938 L 4105 3352.460938 Z M 4105 3269 "/>
</clipPath>
<clipPath id="clip-34">
<path clip-rule="nonzero" d="M 4332 3338 L 4584 3338 L 4584 3352.460938 L 4332 3352.460938 Z M 4332 3338 "/>
</clipPath>
</defs>
<path fill-rule="nonzero" fill="url(#linear-pattern-0)" d="M 0 0 L 0 3352.460938 L 5466.871094 3352.460938 L 5466.871094 0 Z M 0 0 "/>
<path fill-rule="nonzero" fill="rgb(42.09137%, 57.756042%, 83.02002%)" fill-opacity="1" d="M 5418.839844 0 C 5344.03125 144.769531 5265.230469 276.761719 5183.699219 393.761719 C 5084.050781 536.761719 4977.660156 661.210938 4867.449219 763.679688 C 4765.539062 858.429688 4657.609375 936.929688 4546.671875 997.019531 C 4445.441406 1051.839844 4338.878906 1092.851562 4229.929688 1118.921875 C 4046.339844 1162.820312 3854.539062 1166.378906 3643.578125 1129.800781 C 3464.46875 1098.738281 3305.121094 1044.328125 3177.078125 1000.601562 L 3173.710938 999.449219 C 2882.859375 900.140625 2623.070312 917.828125 2331.371094 1056.789062 C 1985.570312 1221.539062 1574.578125 1573.078125 1074.929688 2131.519531 C 832.761719 2402.179688 569.730469 2607.410156 293.128906 2741.488281 C 196.960938 2788.101562 99.082031 2826.21875 0 2855.691406 L 0 2841.058594 C 316.171875 2745.578125 691.28125 2540.480469 1065.070312 2122.710938 C 1325.980469 1831.101562 1556.480469 1601.550781 1769.75 1420.960938 C 1971.871094 1249.808594 2153.710938 1126.769531 2325.679688 1044.859375 C 2484.230469 969.320312 2632.820312 929.691406 2779.960938 923.699219 C 2907.921875 918.488281 3038.109375 939.171875 3177.980469 986.941406 L 3181.359375 988.089844 C 3433.75 1074.269531 3815.160156 1204.511719 4226.851562 1106.039062 C 4684.019531 996.691406 5079.519531 624.871094 5403.921875 0 L 5418.839844 0 "/>
<g clip-path="url(#clip-0)">
<path fill-rule="nonzero" fill="rgb(42.09137%, 57.756042%, 83.02002%)" fill-opacity="1" d="M 5466.871094 29.050781 L 5466.871094 58.191406 C 5390.519531 206.941406 5309.949219 342.371094 5226.511719 462.101562 C 5126.878906 605.089844 5020.46875 729.539062 4910.269531 832.011719 C 4808.359375 926.761719 4700.441406 1005.261719 4589.480469 1065.351562 C 4488.25 1120.171875 4381.691406 1161.179688 4272.738281 1187.25 C 4089.148438 1231.148438 3897.371094 1234.710938 3686.390625 1198.128906 C 3507.28125 1167.070312 3347.941406 1112.660156 3219.910156 1068.929688 L 3216.53125 1067.78125 C 2709.328125 894.601562 2182.398438 1024.839844 1124.210938 2207.53125 C 882.03125 2478.199219 618.640625 2683.03125 341.359375 2816.320312 C 229.660156 2870.019531 115.601562 2912.230469 0 2942.738281 L 0 2928.351562 C 326.738281 2840.628906 721.71875 2637.53125 1114.339844 2198.71875 C 2177.410156 1010.578125 2708.488281 880.320312 3220.808594 1055.269531 L 3224.179688 1056.421875 C 3476.558594 1142.601562 3857.980469 1272.839844 4269.671875 1174.371094 C 4736.328125 1062.75 5138.730469 677.640625 5466.871094 29.050781 "/>
</g>
<g clip-path="url(#clip-1)">
<path fill-rule="nonzero" fill="rgb(42.09137%, 57.756042%, 83.02002%)" fill-opacity="1" d="M 5466.871094 179.730469 L 5466.871094 207.730469 C 5403.410156 324.859375 5337.320312 432.859375 5269.328125 530.429688 C 5169.691406 673.421875 5063.300781 797.871094 4953.078125 900.339844 C 4851.179688 995.089844 4743.25 1073.589844 4632.308594 1133.679688 C 4531.070312 1188.5 4424.511719 1229.511719 4315.558594 1255.558594 C 4131.980469 1299.480469 3940.179688 1303.039062 3729.21875 1266.460938 C 3550.101562 1235.398438 3390.75 1180.988281 3262.71875 1137.261719 L 3259.351562 1136.109375 C 2971.75 1037.910156 2713.980469 1057.949219 2423.539062 1201.101562 C 2079.910156 1370.460938 1682.691406 1714.421875 1173.46875 2283.550781 C 931.289062 2554.230469 667.558594 2758.648438 389.609375 2891.140625 C 262.449219 2951.75 132.191406 2997.46875 0 3027.980469 L 0 3013.820312 C 336.609375 2934.628906 751.910156 2734.871094 1163.621094 2274.730469 C 1425.398438 1982.140625 1655.238281 1751.828125 1866.238281 1570.609375 C 2067.769531 1397.539062 2248.160156 1272.789062 2417.699219 1189.230469 C 2575.171875 1111.628906 2722.308594 1070.238281 2867.539062 1062.761719 C 2994.941406 1056.191406 3124.5 1076.089844 3263.621094 1123.589844 L 3266.988281 1124.75 C 3519.378906 1210.929688 3900.789062 1341.171875 4312.480469 1242.699219 C 4759.050781 1135.898438 5146.769531 778.640625 5466.871094 179.730469 "/>
</g>
<g clip-path="url(#clip-2)">
<path fill-rule="nonzero" fill="rgb(42.09137%, 57.756042%, 83.02002%)" fill-opacity="1" d="M 5466.871094 326.011719 L 5466.871094 353 C 5416.671875 440.820312 5364.96875 522.929688 5312.140625 598.761719 C 5212.511719 741.75 5106.109375 866.199219 4995.910156 968.671875 C 4894 1063.421875 4786.070312 1141.921875 4675.121094 1202.011719 C 4573.878906 1256.828125 4467.320312 1297.839844 4358.378906 1323.890625 C 4174.789062 1367.800781 3983 1371.371094 3772.03125 1334.78125 C 3592.910156 1303.730469 3433.578125 1249.320312 3305.53125 1205.589844 L 3302.171875 1204.441406 C 3016.171875 1106.78125 2759.410156 1128 2469.621094 1273.25 C 2129.558594 1443.699219 1733.359375 1788.878906 1222.738281 2359.570312 C 980.558594 2630.238281 716.480469 2834.261719 437.839844 2965.96875 C 295.308594 3033.328125 148.800781 3081.980469 0 3111.46875 L 0 3097.519531 C 345.691406 3027.570312 781.789062 2832.53125 1212.878906 2350.738281 C 1475.148438 2057.628906 1704.648438 1826.921875 1914.480469 1645.441406 C 2115.75 1471.398438 2295.390625 1345.789062 2463.699219 1261.421875 C 2620.640625 1182.761719 2767.050781 1140.519531 2911.328125 1132.289062 C 3038.441406 1125.039062 3167.691406 1144.539062 3306.441406 1191.921875 L 3309.820312 1193.070312 C 3562.199219 1279.261719 3943.601562 1409.5 4355.308594 1311.03125 C 4782.128906 1208.941406 5155.210938 878.039062 5466.871094 326.011719 "/>
</g>
<g clip-path="url(#clip-3)">
<path fill-rule="nonzero" fill="rgb(42.09137%, 57.756042%, 83.02002%)" fill-opacity="1" d="M 5466.871094 468.140625 L 5466.871094 494.238281 C 5430.238281 554.960938 5392.898438 612.648438 5354.96875 667.089844 C 5255.320312 810.078125 5148.929688 934.53125 5038.71875 1037 C 4936.808594 1131.75 4828.878906 1210.25 4717.929688 1270.339844 C 4616.710938 1325.160156 4510.140625 1366.171875 4401.199219 1392.21875 C 4217.609375 1436.128906 4025.808594 1439.699219 3814.851562 1403.109375 C 3635.738281 1372.058594 3476.390625 1317.648438 3348.351562 1273.929688 L 3344.980469 1272.769531 C 3060.570312 1175.660156 2804.820312 1198.050781 2515.699219 1345.398438 C 2179.261719 1516.871094 1784.070312 1863.289062 1272.011719 2435.578125 C 1029.828125 2706.261719 765.410156 2909.878906 486.089844 3040.78125 C 328.261719 3114.75 165.480469 3165.75 0 3193.199219 L 0 3179.449219 C 353.878906 3119.398438 811.359375 2930.589844 1262.148438 2426.761719 C 1524.929688 2133.078125 1754.089844 1901.980469 1962.730469 1720.28125 C 2163.71875 1545.238281 2342.621094 1418.761719 2509.691406 1333.621094 C 2666.089844 1253.910156 2811.789062 1210.789062 2955.121094 1201.820312 C 3081.941406 1193.890625 3210.859375 1212.988281 3349.25 1260.25 L 3352.628906 1261.398438 C 3605.019531 1347.589844 3986.429688 1477.828125 4398.121094 1379.359375 C 4805.589844 1281.910156 5164.058594 975.941406 5466.871094 468.140625 "/>
</g>
<g clip-path="url(#clip-4)">
<path fill-rule="nonzero" fill="rgb(42.09137%, 57.756042%, 83.02002%)" fill-opacity="1" d="M 5466.871094 606.339844 L 5466.871094 631.660156 C 5444.078125 667.429688 5421.039062 702.039062 5397.78125 735.421875 C 5298.148438 878.421875 5191.738281 1002.871094 5081.539062 1105.328125 C 4979.628906 1200.058594 4871.710938 1278.578125 4760.75 1338.671875 C 4659.519531 1393.488281 4552.960938 1434.488281 4444.011719 1460.550781 C 4260.421875 1504.460938 4068.640625 1508.03125 3857.660156 1471.441406 C 3678.550781 1440.378906 3519.210938 1385.96875 3391.160156 1342.261719 L 3387.800781 1341.101562 C 3101.148438 1243.21875 2854.109375 1266.078125 2561.789062 1417.558594 C 2229.019531 1589.988281 1834.828125 1937.621094 1321.289062 2511.601562 C 1079.089844 2782.28125 814.320312 2985.5 534.339844 3115.609375 C 361.300781 3196.019531 182.191406 3248.800781 0 3273.210938 L 0 3259.621094 C 361.078125 3210.039062 840.550781 3029.039062 1311.429688 2502.78125 C 1826.070312 1927.570312 2221.449219 1579.011719 2555.710938 1405.808594 C 2711.558594 1325.039062 2856.53125 1281.070312 2998.910156 1271.359375 C 3125.421875 1262.71875 3254.039062 1281.441406 3392.078125 1328.578125 L 3395.449219 1329.730469 C 3647.828125 1415.921875 4029.238281 1546.160156 4440.941406 1447.699219 C 4829.359375 1354.789062 5173.261719 1072.410156 5466.871094 606.339844 "/>
</g>
<g clip-path="url(#clip-5)">
<path fill-rule="nonzero" fill="rgb(42.09137%, 57.756042%, 83.02002%)" fill-opacity="1" d="M 5466.871094 740.789062 L 5466.871094 765.378906 C 5458.148438 778.339844 5449.390625 791.128906 5440.601562 803.75 C 5340.960938 946.730469 5234.570312 1071.199219 5124.351562 1173.660156 C 5022.441406 1268.398438 4914.519531 1346.898438 4803.578125 1406.988281 C 4702.339844 1461.820312 4595.78125 1502.820312 4486.828125 1528.878906 C 4303.25 1572.789062 4111.449219 1576.351562 3900.488281 1539.769531 C 3721.371094 1508.710938 3562.019531 1454.300781 3433.988281 1410.570312 L 3430.609375 1409.421875 C 3145.550781 1312.089844 2899.488281 1336.089844 2607.871094 1489.710938 C 2278.828125 1663.03125 1885.660156 2011.910156 1370.550781 2587.601562 C 1128.359375 2858.308594 863.238281 3061.121094 582.578125 3190.429688 C 394.398438 3277.128906 198.921875 3331.140625 0 3351.511719 L 0 3338.078125 C 367.128906 3299.480469 869.308594 3127.980469 1360.699219 2578.789062 C 1876.890625 2001.878906 2271.21875 1652.089844 2601.710938 1478 C 2757.03125 1396.179688 2901.269531 1351.328125 3042.691406 1340.890625 C 3168.910156 1331.570312 3297.199219 1349.890625 3434.890625 1396.910156 L 3438.261719 1398.058594 C 3690.648438 1484.25 4072.058594 1614.488281 4483.75 1516.011719 C 4853.449219 1427.601562 5182.808594 1167.53125 5466.871094 740.789062 "/>
</g>
<g clip-path="url(#clip-6)">
<path fill-rule="nonzero" fill="rgb(42.09137%, 57.756042%, 83.02002%)" fill-opacity="1" d="M 5466.871094 871.691406 L 5466.871094 895.550781 C 5372.039062 1028.710938 5271.308594 1145.179688 5167.179688 1241.988281 C 5065.269531 1336.730469 4957.339844 1415.230469 4846.390625 1475.320312 C 4745.148438 1530.140625 4638.589844 1571.148438 4529.640625 1597.21875 C 4346.058594 1641.121094 4154.269531 1644.679688 3943.300781 1608.101562 C 3764.179688 1577.039062 3604.851562 1522.628906 3476.800781 1478.898438 L 3473.441406 1477.75 C 3189.921875 1380.949219 2944.839844 1406.101562 2653.960938 1561.851562 C 2328.699219 1736.019531 1936.539062 2086.109375 1419.820312 2663.621094 C 1177.628906 2934.320312 912.160156 3136.738281 630.820312 3265.257812 C 555.738281 3299.558594 479.480469 3328.648438 402.28125 3352.460938 L 352.410156 3352.460938 C 671.109375 3262.480469 1043.921875 3063.898438 1409.960938 2654.800781 C 1927.738281 2076.109375 2321.050781 1725.109375 2647.699219 1550.199219 C 2802.488281 1467.308594 2946.019531 1421.589844 3086.480469 1410.410156 C 3152.660156 1405.160156 3217.53125 1407.421875 3284.761719 1417.351562 C 3347.238281 1426.578125 3410.359375 1442.238281 3477.710938 1465.238281 L 3481.089844 1466.390625 C 3733.46875 1552.578125 4114.871094 1682.820312 4526.578125 1584.339844 C 4877.839844 1500.328125 5192.699219 1261.351562 5466.871094 871.691406 "/>
</g>
<g clip-path="url(#clip-7)">
<path fill-rule="nonzero" fill="rgb(42.09137%, 57.756042%, 83.02002%)" fill-opacity="1" d="M 5466.871094 999.21875 L 5466.871094 1022.339844 C 5384.730469 1131.351562 5298.589844 1227.949219 5209.988281 1310.320312 C 5108.078125 1405.058594 5000.148438 1483.558594 4889.210938 1543.648438 C 4787.980469 1598.46875 4681.410156 1639.480469 4572.46875 1665.550781 C 4388.878906 1709.449219 4197.078125 1713.011719 3986.121094 1676.429688 C 3807.011719 1645.371094 3647.660156 1590.960938 3519.621094 1547.230469 L 3516.25 1546.078125 C 3029.789062 1379.96875 2559.460938 1520.988281 1469.101562 2739.640625 C 1226.890625 3010.339844 961.089844 3212.359375 679.058594 3340.070312 C 669.761719 3344.28125 660.449219 3348.410156 651.109375 3352.460938 L 614.25 3352.460938 C 880.820312 3242.199219 1172.351562 3051.460938 1459.230469 2730.808594 C 1724.339844 2434.53125 1952.160156 2201.878906 2155.710938 2019.578125 C 2355.679688 1840.511719 2531.660156 1710.589844 2693.71875 1622.390625 C 2847.960938 1538.441406 2990.761719 1491.859375 3130.261719 1479.949219 C 3196.230469 1474.328125 3260.851562 1476.308594 3327.828125 1486.011719 C 3390.230469 1495.039062 3453.25 1510.601562 3520.519531 1533.570312 L 3523.898438 1534.71875 C 3776.289062 1620.910156 4157.699219 1751.140625 4569.390625 1652.671875 C 4902.511719 1573 5202.878906 1353.960938 5466.871094 999.21875 "/>
</g>
<g clip-path="url(#clip-8)">
<path fill-rule="nonzero" fill="rgb(42.09137%, 57.756042%, 83.02002%)" fill-opacity="1" d="M 5466.871094 1123.480469 L 5466.871094 1145.910156 C 5397.78125 1232.550781 5326.140625 1310.46875 5252.808594 1378.640625 C 5150.898438 1473.390625 5042.980469 1551.890625 4932.019531 1611.980469 C 4830.789062 1666.800781 4724.21875 1707.808594 4615.28125 1733.878906 C 4431.691406 1777.789062 4239.890625 1781.339844 4028.929688 1744.761719 C 3849.820312 1713.699219 3690.480469 1659.289062 3562.429688 1615.558594 L 3559.070312 1614.410156 C 3278.628906 1518.660156 3035.511719 1546.101562 2746.121094 1706.160156 C 2428.648438 1881.761719 2038.519531 2234.308594 1518.371094 2815.648438 C 1312.648438 3045.570312 1089.648438 3225.660156 853.929688 3352.460938 L 823.261719 3352.460938 C 1044.671875 3237.480469 1278.238281 3064.179688 1508.511719 2806.828125 C 1774.28125 2509.789062 2001.769531 2276.75 2203.960938 2094.421875 C 2403.691406 1914.300781 2578.941406 1783.511719 2739.71875 1694.578125 C 2893.421875 1609.570312 3035.488281 1562.101562 3174.050781 1549.480469 C 3239.78125 1543.5 3304.171875 1545.199219 3370.910156 1554.660156 C 3433.210938 1563.511719 3496.148438 1578.960938 3563.351562 1601.898438 L 3566.71875 1603.050781 C 3819.101562 1689.230469 4200.511719 1819.46875 4612.210938 1721 C 4927.449219 1645.601562 5213.371094 1445.398438 5466.871094 1123.480469 "/>
</g>
<g clip-path="url(#clip-9)">
<path fill-rule="nonzero" fill="rgb(42.09137%, 57.756042%, 83.02002%)" fill-opacity="1" d="M 5466.871094 1244.660156 L 5466.871094 1266.429688 C 5411.140625 1332.421875 5353.910156 1392.769531 5295.621094 1446.96875 C 5193.710938 1541.71875 5085.789062 1620.21875 4974.839844 1680.308594 C 4873.609375 1735.128906 4767.050781 1776.140625 4658.101562 1802.210938 C 4474.519531 1846.121094 4282.71875 1849.671875 4071.761719 1813.089844 C 3892.640625 1782.03125 3733.289062 1727.621094 3605.261719 1683.898438 L 3601.878906 1682.738281 C 3322.96875 1587.5 3080.828125 1616.078125 2792.210938 1778.308594 C 2478.738281 1954.511719 2089.621094 2308.28125 1567.628906 2891.671875 C 1399.78125 3079.25 1220.28125 3233.46875 1031.589844 3352.460938 L 1004.898438 3352.460938 C 1186.148438 3241.308594 1373.128906 3089.21875 1557.78125 2882.851562 C 1824.269531 2585 2051.421875 2351.578125 2252.210938 2169.25 C 2451.710938 1988.070312 2626.21875 1856.421875 2785.730469 1766.78125 C 2938.871094 1680.691406 3080.230469 1632.371094 3217.839844 1619.019531 C 3283.328125 1612.671875 3347.488281 1614.078125 3413.988281 1623.320312 C 3476.191406 1631.96875 3539.039062 1647.300781 3606.160156 1670.230469 L 3609.53125 1671.378906 C 3861.921875 1757.558594 4243.328125 1887.800781 4655.019531 1789.328125 C 4952.640625 1718.148438 5224.128906 1535.730469 5466.871094 1244.660156 "/>
</g>
<g clip-path="url(#clip-10)">
<path fill-rule="nonzero" fill="rgb(42.09137%, 57.756042%, 83.02002%)" fill-opacity="1" d="M 5466.871094 1362.859375 L 5466.871094 1384.03125 C 5424.78125 1431.070312 5381.910156 1474.890625 5338.449219 1515.300781 C 5236.539062 1610.050781 5128.609375 1688.550781 5017.660156 1748.640625 C 4916.421875 1803.460938 4809.859375 1844.480469 4700.910156 1870.519531 C 4517.328125 1914.449219 4325.539062 1918.011719 4114.570312 1881.429688 C 3935.449219 1850.359375 3776.101562 1795.949219 3648.070312 1752.230469 L 3644.691406 1751.070312 C 3367.300781 1656.351562 3126.121094 1686.058594 2838.289062 1850.449219 C 2524.660156 2029.578125 2147.96875 2374.148438 1616.898438 2967.691406 C 1482.640625 3117.738281 1340.820312 3246.308594 1192.699219 3352.460938 L 1168.761719 3352.460938 C 1313.761719 3250.859375 1461.191406 3121.871094 1607.039062 2958.859375 C 1874.320312 2660.140625 2101.128906 2426.339844 2300.441406 2244.070312 C 2499.75 2061.839844 2673.53125 1929.320312 2831.730469 1838.96875 C 2984.339844 1751.820312 3124.960938 1702.609375 3261.628906 1688.550781 C 3326.898438 1681.839844 3390.820312 1682.96875 3457.058594 1691.980469 C 3519.160156 1700.429688 3581.929688 1715.660156 3648.980469 1738.558594 L 3652.351562 1739.710938 C 3904.730469 1825.890625 4286.140625 1956.128906 4697.839844 1857.660156 C 4978.078125 1790.628906 5235.148438 1624.980469 5466.871094 1362.859375 "/>
</g>
<g clip-path="url(#clip-11)">
<path fill-rule="nonzero" fill="rgb(42.09137%, 57.756042%, 83.02002%)" fill-opacity="1" d="M 5466.871094 1478.21875 L 5466.871094 1498.808594 C 5438.628906 1528.550781 5410.070312 1556.839844 5381.261719 1583.628906 C 5279.351562 1678.378906 5171.421875 1756.878906 5060.46875 1816.96875 C 4959.25 1871.789062 4852.679688 1912.808594 4743.738281 1938.851562 C 4560.148438 1982.78125 4368.351562 1986.339844 4157.390625 1949.761719 C 3978.28125 1918.691406 3818.929688 1864.28125 3690.890625 1820.558594 L 3687.519531 1819.410156 C 3411.601562 1725.179688 3171.410156 1756.050781 2884.371094 1922.609375 C 2574.960938 2102.148438 2199.25 2447.898438 1666.179688 3043.691406 C 1562.421875 3159.671875 1454.070312 3262.730469 1341.730469 3352.460938 L 1319.789062 3352.460938 C 1431.75 3264.667969 1544.539062 3159.808594 1656.320312 3034.878906 C 1924.421875 2735.230469 2150.898438 2501.039062 2348.691406 2318.898438 C 2547.78125 2135.578125 2720.839844 2002.210938 2877.730469 1911.171875 C 3029.800781 1822.921875 3169.691406 1772.851562 3305.410156 1758.089844 C 3370.449219 1751.011719 3434.128906 1751.839844 3500.140625 1760.628906 C 3562.140625 1768.878906 3624.820312 1784.019531 3691.789062 1806.878906 L 3695.171875 1808.039062 C 3947.558594 1894.21875 4328.96875 2024.460938 4740.660156 1926 C 5003.761719 1863.070312 5246.421875 1713.210938 5466.871094 1478.21875 "/>
</g>
<g clip-path="url(#clip-12)">
<path fill-rule="nonzero" fill="rgb(42.09137%, 57.756042%, 83.02002%)" fill-opacity="1" d="M 5466.871094 1590.828125 L 5466.871094 1610.871094 C 5452.671875 1624.929688 5438.398438 1638.628906 5424.070312 1651.960938 C 5322.171875 1746.710938 5214.25 1825.210938 5103.289062 1885.300781 C 5002.058594 1940.121094 4895.488281 1981.140625 4786.550781 2007.191406 C 4602.960938 2051.089844 4411.171875 2054.671875 4200.199219 2018.070312 C 4021.089844 1987.019531 3861.738281 1932.609375 3733.699219 1888.890625 L 3730.328125 1887.738281 C 3455.898438 1794.019531 3216.679688 1826.019531 2930.460938 1994.75 C 2625.359375 2174.601562 2250.628906 2521.558594 1715.449219 3119.710938 C 1639.808594 3204.25 1561.699219 3281.890625 1481.359375 3352.460938 L 1460.910156 3352.460938 C 1542.570312 3281.808594 1624.359375 3201.671875 1705.589844 3110.878906 C 2241.730469 2511.679688 2617.410156 2163.929688 2923.738281 1983.359375 C 3075.261719 1894.03125 3214.429688 1843.101562 3349.199219 1827.621094 C 3414 1820.191406 3477.460938 1820.730469 3543.210938 1829.289062 C 3605.109375 1837.339844 3667.710938 1852.371094 3734.621094 1875.210938 L 3737.988281 1876.359375 C 3990.371094 1962.550781 4371.78125 2092.789062 4783.480469 1994.328125 C 5029.648438 1935.449219 5257.941406 1800.460938 5466.871094 1590.828125 "/>
</g>
<g clip-path="url(#clip-13)">
<path fill-rule="nonzero" fill="rgb(42.09137%, 57.756042%, 83.02002%)" fill-opacity="1" d="M 5466.871094 1700.820312 L 5466.871094 1720.308594 C 5364.96875 1815.039062 5257.050781 1893.539062 5146.101562 1953.628906 C 5044.878906 2008.460938 4938.320312 2049.449219 4829.371094 2075.519531 C 4645.789062 2119.421875 4453.980469 2123 4243.03125 2086.398438 C 4063.910156 2055.351562 3904.558594 2000.929688 3776.53125 1957.21875 L 3773.148438 1956.050781 C 3500.179688 1862.851562 3261.941406 1895.988281 2976.539062 2066.898438 C 2675.859375 2246.96875 2302.109375 2595.109375 1764.710938 3195.730469 C 1715.300781 3250.949219 1664.828125 3303.210938 1613.359375 3352.460938 L 1594.03125 3352.460938 C 1647.769531 3301.679688 1701.449219 3246.601562 1754.859375 3186.898438 C 2024.808594 2885.199219 2250.609375 2650.230469 2445.191406 2468.558594 C 2643.910156 2283.019531 2815.488281 2147.921875 2969.738281 2055.550781 C 3120.710938 1965.140625 3259.160156 1913.328125 3392.988281 1897.160156 C 3457.550781 1889.351562 3520.769531 1889.609375 3586.289062 1897.949219 C 3648.078125 1905.808594 3710.601562 1920.71875 3777.429688 1943.539062 L 3780.800781 1944.691406 C 4033.191406 2030.878906 4414.601562 2161.121094 4826.289062 2062.660156 C 5055.75 2007.78125 5269.671875 1886.769531 5466.871094 1700.820312 "/>
</g>
<g clip-path="url(#clip-14)">
<path fill-rule="nonzero" fill="rgb(42.09137%, 57.756042%, 83.02002%)" fill-opacity="1" d="M 5466.871094 1808.269531 L 5466.871094 1827.171875 C 5377.75 1904.828125 5284.449219 1970.21875 5188.929688 2021.960938 C 5087.691406 2076.769531 4981.128906 2117.78125 4872.179688 2143.851562 C 4688.601562 2187.75 4496.808594 2191.328125 4285.839844 2154.730469 C 4106.71875 2123.671875 3947.371094 2069.261719 3819.339844 2025.550781 L 3815.960938 2024.398438 C 3544.441406 1931.671875 3307.179688 1965.960938 3022.621094 2139.058594 C 2726.449219 2319.199219 2353.691406 2668.539062 1813.988281 3271.738281 C 1789.25 3299.390625 1764.238281 3326.300781 1738.960938 3352.460938 L 1720.46875 3352.460938 C 1748.410156 3323.839844 1776.300781 3294.011719 1804.121094 3262.917969 C 2075.101562 2960.070312 2300.578125 2724.699219 2493.441406 2543.390625 C 2691.980469 2356.71875 2862.828125 2220.761719 3015.75 2127.75 C 3166.171875 2036.25 3303.890625 1983.570312 3436.78125 1966.691406 C 3501.101562 1958.53125 3564.089844 1958.5 3629.359375 1966.601562 C 3691.050781 1974.269531 3753.488281 1989.070312 3820.25 2011.871094 L 3823.609375 2013.019531 C 4076 2099.210938 4457.421875 2229.449219 4869.109375 2130.96875 C 5082.058594 2080.039062 5281.628906 1972.160156 5466.871094 1808.269531 "/>
</g>
<g clip-path="url(#clip-15)">
<path fill-rule="nonzero" fill="rgb(42.09137%, 57.756042%, 83.02002%)" fill-opacity="1" d="M 5466.871094 1913.28125 L 5466.871094 1931.601562 C 5390.839844 1993.601562 5312.078125 2046.769531 5231.738281 2090.28125 C 5130.519531 2145.101562 5023.949219 2186.109375 4915.011719 2212.179688 C 4731.421875 2256.089844 4539.621094 2259.640625 4328.660156 2223.058594 C 4149.550781 2192 3990.199219 2137.589844 3862.160156 2093.871094 L 3858.789062 2092.710938 C 3588.691406 2000.488281 3352.421875 2035.921875 3068.710938 2211.199219 C 2773.230469 2393.75 2412.71875 2733.660156 1863.261719 3347.761719 C 1861.851562 3349.328125 1860.449219 3350.898438 1859.039062 3352.460938 L 1841.21875 3352.460938 C 1845.289062 3347.980469 1849.339844 3343.46875 1853.398438 3338.941406 C 2125.5 3034.828125 2350.640625 2799.078125 2541.671875 2618.21875 C 2740.070312 2430.398438 2910.191406 2293.578125 3061.75 2199.941406 C 3211.628906 2107.359375 3348.621094 2053.808594 3480.558594 2036.21875 C 3544.648438 2027.691406 3607.410156 2027.371094 3672.441406 2035.261719 C 3734.019531 2042.730469 3796.371094 2057.429688 3863.058594 2080.199219 L 3866.441406 2081.351562 C 4118.828125 2167.539062 4500.238281 2297.789062 4911.929688 2199.300781 C 5108.570312 2152.269531 5293.800781 2056.679688 5466.871094 1913.28125 "/>
</g>
<g clip-path="url(#clip-16)">
<path fill-rule="nonzero" fill="rgb(42.09137%, 57.756042%, 83.02002%)" fill-opacity="1" d="M 5466.871094 2015.910156 L 5466.871094 2033.691406 C 5404.21875 2081.429688 5339.910156 2123.210938 5274.558594 2158.609375 C 5173.328125 2213.429688 5066.761719 2254.441406 4957.820312 2280.511719 C 4774.230469 2324.421875 4582.441406 2327.96875 4371.46875 2291.398438 C 4192.359375 2260.328125 4033.011719 2205.921875 3904.96875 2162.199219 L 3901.601562 2161.039062 C 3632.929688 2069.308594 3397.621094 2105.878906 3114.789062 2283.351562 C 2835.519531 2458.570312 2492.660156 2780.289062 1976.578125 3352.460938 L 1958.78125 3352.460938 C 2480.179688 2773.78125 2825.96875 2448.949219 3107.761719 2272.148438 C 3257.070312 2178.449219 3393.328125 2124.03125 3524.351562 2105.761719 C 3648.488281 2088.449219 3769.738281 2102.039062 3905.890625 2148.53125 L 3909.25 2149.679688 C 4161.640625 2235.871094 4543.058594 2366.101562 4954.738281 2267.640625 C 5135.261719 2224.460938 5306.160156 2140.359375 5466.871094 2015.910156 "/>
</g>
<g clip-path="url(#clip-17)">
<path fill-rule="nonzero" fill="rgb(42.09137%, 57.756042%, 83.02002%)" fill-opacity="1" d="M 5466.871094 2116.261719 L 5466.871094 2133.539062 C 5417.851562 2168.359375 5367.929688 2199.570312 5317.371094 2226.941406 C 5216.148438 2281.761719 5109.570312 2322.78125 5000.640625 2348.839844 C 4817.058594 2392.75 4625.25 2396.308594 4414.300781 2359.730469 C 4235.179688 2328.660156 4075.828125 2274.25 3947.800781 2230.53125 L 3944.421875 2229.371094 C 3677.160156 2138.121094 3442.828125 2175.839844 3160.859375 2355.488281 C 2898.628906 2522.589844 2575.011719 2824.601562 2094.679688 3352.460938 L 2076.761719 3352.460938 C 2297.078125 3109.898438 2477.75 2921.859375 2638.171875 2767.878906 C 2836.289062 2577.699219 3004.949219 2439.160156 3153.761719 2344.339844 C 3302.53125 2249.550781 3438.058594 2194.25 3568.140625 2175.289062 C 3691.910156 2157.261719 3812.828125 2170.460938 3948.699219 2216.859375 L 3952.070312 2218.011719 C 4204.460938 2304.199219 4585.859375 2434.429688 4997.558594 2335.96875 C 5162.140625 2296.601562 5318.71875 2223.21875 5466.871094 2116.261719 "/>
</g>
<g clip-path="url(#clip-18)">
<path fill-rule="nonzero" fill="rgb(42.09137%, 57.756042%, 83.02002%)" fill-opacity="1" d="M 5466.871094 2214.421875 L 5466.871094 2231.210938 C 5431.699219 2254.449219 5396.101562 2275.828125 5360.191406 2295.28125 C 5258.960938 2350.101562 5152.398438 2391.109375 5043.449219 2417.171875 C 4859.871094 2461.078125 4668.070312 2464.640625 4457.109375 2428.058594 C 4277.988281 2397 4118.640625 2342.578125 3990.609375 2298.859375 L 3987.230469 2297.710938 C 3717.828125 2205.710938 3491.761719 2243.359375 3206.960938 2427.648438 C 2958.160156 2588.621094 2661.851562 2863.359375 2213.238281 3352.460938 L 2195.28125 3352.460938 C 2385.488281 3144.828125 2544.578125 2979.789062 2686.410156 2842.710938 C 2884.429688 2651.320312 3052.359375 2511.921875 3199.761719 2416.539062 C 3347.96875 2320.640625 3482.789062 2264.480469 3611.910156 2244.839844 C 3735.320312 2226.070312 3855.929688 2238.890625 3991.511719 2285.191406 L 3994.878906 2286.351562 C 4247.269531 2372.519531 4628.679688 2502.769531 5040.371094 2404.300781 C 5189.179688 2368.710938 5331.449219 2305.308594 5466.871094 2214.421875 "/>
</g>
<g clip-path="url(#clip-19)">
<path fill-rule="nonzero" fill="rgb(42.09137%, 57.756042%, 83.02002%)" fill-opacity="1" d="M 5466.871094 2310.421875 L 5466.871094 2326.78125 C 5445.710938 2339.730469 5424.421875 2352.011719 5403.011719 2363.601562 C 5301.789062 2418.429688 5195.210938 2459.441406 5086.28125 2485.5 C 4902.691406 2529.410156 4710.890625 2532.96875 4499.929688 2496.390625 C 4320.820312 2465.320312 4161.46875 2410.910156 4033.429688 2367.191406 L 4030.058594 2366.039062 C 3762.050781 2274.53125 3536.929688 2313.261719 3253.039062 2499.789062 C 3021.570312 2651.851562 2744.371094 2907.410156 2332.378906 3352.460938 L 2314.371094 3352.460938 C 2731.75 2900.988281 3011.859375 2642.410156 3245.769531 2488.730469 C 3393.429688 2391.730469 3527.511719 2334.699219 3655.699219 2314.371094 C 3778.699219 2294.871094 3899.019531 2307.308594 4034.328125 2353.511719 L 4037.699219 2354.671875 C 4290.101562 2440.851562 4671.5 2571.089844 5083.191406 2472.628906 C 5216.398438 2440.769531 5344.371094 2386.621094 5466.871094 2310.421875 "/>
</g>
<g clip-path="url(#clip-20)">
<path fill-rule="nonzero" fill="rgb(42.09137%, 57.756042%, 83.02002%)" fill-opacity="1" d="M 5466.871094 2404.371094 L 5466.871094 2420.300781 C 5459.871094 2424.25 5452.851562 2428.121094 5445.828125 2431.929688 C 5344.601562 2486.761719 5238.03125 2527.769531 5129.089844 2553.820312 C 4945.5 2597.738281 4753.699219 2601.300781 4542.738281 2564.71875 C 4363.628906 2533.648438 4204.28125 2479.238281 4076.238281 2435.519531 L 4072.871094 2434.371094 C 3632.988281 2284.160156 3280.238281 2466.648438 2452.058594 3352.460938 L 2433.761719 3352.460938 C 2565.011719 3211.71875 2679.449219 3093.738281 2782.898438 2992.359375 C 2980.738281 2798.5 3147.199219 2657.359375 3291.769531 2560.929688 C 3438.871094 2462.808594 3572.238281 2404.898438 3699.480469 2383.910156 C 3822.101562 2363.679688 3942.109375 2375.730469 4077.140625 2421.839844 L 4080.519531 2423 C 4332.910156 2509.179688 4714.328125 2639.421875 5126.011719 2540.960938 C 5243.78125 2512.789062 5357.449219 2467.210938 5466.871094 2404.371094 "/>
</g>
<g clip-path="url(#clip-21)">
<path fill-rule="nonzero" fill="rgb(42.09137%, 57.756042%, 83.02002%)" fill-opacity="1" d="M 5466.871094 2496.28125 L 5466.871094 2511.800781 C 5372.171875 2560.871094 5273.058594 2597.960938 5171.910156 2622.148438 C 4988.328125 2666.070312 4796.519531 2669.628906 4585.570312 2633.03125 C 4406.441406 2601.980469 4247.101562 2547.570312 4119.070312 2503.851562 L 4115.691406 2502.699219 C 3850.449219 2412.128906 3627.21875 2453.089844 3345.210938 2644.078125 C 3126.429688 2792.238281 2871.238281 3034.628906 2571.628906 3352.460938 L 2553.691406 3352.460938 C 2656.199219 3243.570312 2747.621094 3149.621094 2831.148438 3067.199219 C 3031.679688 2869.328125 3192.671875 2731.398438 3337.78125 2633.128906 C 3484.308594 2533.890625 3616.949219 2475.109375 3743.269531 2453.441406 C 3865.480469 2432.46875 3985.179688 2444.140625 4119.96875 2490.171875 L 4123.339844 2491.320312 C 4375.71875 2577.511719 4757.140625 2707.75 5168.828125 2609.289062 C 5271.308594 2584.78125 5370.699219 2547.078125 5466.871094 2496.28125 "/>
</g>
<g clip-path="url(#clip-22)">
<path fill-rule="nonzero" fill="rgb(42.09137%, 57.756042%, 83.02002%)" fill-opacity="1" d="M 5466.871094 2586.261719 L 5466.871094 2601.351562 C 5385.269531 2640.019531 5300.738281 2669.910156 5214.71875 2690.480469 C 5031.140625 2734.390625 4839.328125 2737.960938 4628.378906 2701.359375 C 4449.261719 2670.320312 4289.910156 2615.898438 4161.878906 2572.179688 L 4158.5 2571.03125 C 3894.640625 2480.921875 3672.359375 2522.988281 3391.28125 2716.21875 C 3194 2851.859375 2962.660156 3069.03125 2692.328125 3352.460938 L 2673.929688 3352.460938 C 2747.808594 3274.808594 2815.53125 3205.488281 2879.390625 3142.03125 C 3079.890625 2942.828125 3240.160156 2804.070312 3383.78125 2705.320312 C 3457.949219 2654.351562 3526.488281 2614.871094 3593.339844 2584.648438 C 3660.089844 2554.488281 3723.449219 2534.320312 3787.039062 2522.980469 C 3908.859375 2501.28125 4028.261719 2512.570312 4162.78125 2558.5 L 4166.148438 2559.648438 C 4418.539062 2645.839844 4799.949219 2776.089844 5211.640625 2677.621094 C 5298.988281 2656.730469 5384.089844 2626.25 5466.871094 2586.261719 "/>
</g>
<g clip-path="url(#clip-23)">
<path fill-rule="nonzero" fill="rgb(42.09137%, 57.756042%, 83.02002%)" fill-opacity="1" d="M 5466.871094 2674.328125 L 5466.871094 2689.039062 C 5398.648438 2718.449219 5328.601562 2741.808594 5257.53125 2758.808594 C 5073.949219 2802.71875 4882.160156 2806.289062 4671.191406 2769.699219 C 4492.070312 2738.628906 4332.738281 2684.21875 4204.699219 2640.511719 L 4201.328125 2639.351562 C 4116.121094 2610.25 4034.371094 2594.828125 3952.550781 2594.828125 C 3642.5 2594.828125 3330.078125 2815.980469 2812.980469 3352.460938 L 2794.671875 3352.460938 C 3458.75 2662.128906 3789.460938 2484.730469 4205.601562 2626.828125 L 4208.96875 2627.980469 C 4461.351562 2714.171875 4842.761719 2844.421875 5254.460938 2745.949219 C 5326.820312 2728.640625 5397.640625 2704.761719 5466.871094 2674.328125 "/>
</g>
<g clip-path="url(#clip-24)">
<path fill-rule="nonzero" fill="rgb(42.09137%, 57.756042%, 83.02002%)" fill-opacity="1" d="M 5466.871094 2760.558594 L 5466.871094 2774.949219 C 5412.269531 2796.230469 5356.628906 2813.679688 5300.359375 2827.140625 C 5116.769531 2871.050781 4924.96875 2874.621094 4714.011719 2838.03125 C 4534.898438 2806.960938 4375.550781 2752.550781 4247.511719 2708.828125 L 4244.140625 2707.679688 C 3982.960938 2618.5 3762.570312 2662.769531 3483.441406 2860.519531 C 3324.761719 2972.929688 3146.789062 3135.101562 2934.359375 3352.460938 L 2916.109375 3352.460938 C 2936.550781 3331.5 2956.449219 3311.269531 2975.890625 3291.691406 C 3176.359375 3089.761719 3335.199219 2949.308594 3475.789062 2849.71875 C 3758.851562 2649.199219 3982.679688 2604.421875 4248.410156 2695.160156 L 4251.78125 2696.308594 C 4504.179688 2782.5 4885.589844 2912.75 5297.269531 2814.269531 C 5354.789062 2800.511719 5411.328125 2782.601562 5466.871094 2760.558594 "/>
</g>
<g clip-path="url(#clip-25)">
<path fill-rule="nonzero" fill="rgb(42.09137%, 57.756042%, 83.02002%)" fill-opacity="1" d="M 5466.871094 2844.988281 L 5466.871094 2859.101562 C 5426.101562 2873.371094 5384.808594 2885.511719 5343.171875 2895.46875 C 5159.578125 2939.378906 4967.789062 2942.941406 4756.820312 2906.359375 C 4577.710938 2875.289062 4418.371094 2820.878906 4290.339844 2777.160156 L 4286.960938 2776.011719 C 4027.109375 2687.28125 3807.671875 2732.671875 3529.53125 2932.660156 C 3392.460938 3031.21875 3238.269531 3169.96875 3056.941406 3352.460938 L 3038.03125 3352.460938 C 3231.949219 3156.640625 3385.988281 3019.578125 3521.808594 2921.910156 C 3594.96875 2869.308594 3662.339844 2828.449219 3727.78125 2797 C 3793.570312 2765.378906 3855.921875 2743.988281 3918.398438 2731.589844 C 4038.988281 2707.679688 4157.460938 2717.808594 4291.238281 2763.488281 L 4294.609375 2764.640625 C 4546.988281 2850.828125 4928.398438 2981.058594 5340.101562 2882.601562 C 5382.898438 2872.359375 5425.160156 2859.828125 5466.871094 2844.988281 "/>
</g>
<g clip-path="url(#clip-26)">
<path fill-rule="nonzero" fill="rgb(42.09137%, 57.756042%, 83.02002%)" fill-opacity="1" d="M 5466.871094 2927.679688 L 5466.871094 2941.578125 C 5440.089844 2949.898438 5413.121094 2957.308594 5385.988281 2963.800781 C 5202.410156 3007.710938 5010.601562 3011.269531 4799.648438 2974.691406 C 4620.53125 2943.621094 4461.179688 2889.210938 4333.148438 2845.488281 L 4329.769531 2844.339844 C 4071.238281 2756.058594 3852.761719 2802.539062 3575.609375 3004.808594 C 3458.660156 3090.160156 3329.808594 3204.191406 3179.679688 3352.460938 L 3160.699219 3352.460938 C 3320.191406 3194.421875 3451.179688 3079.230469 3567.808594 2994.121094 C 3640.648438 2940.96875 3707.628906 2899.640625 3772.589844 2867.789062 C 3838.058594 2835.679688 3900.078125 2813.878906 3962.179688 2801.128906 C 4082.339844 2776.46875 4200.511719 2786.21875 4334.050781 2831.820312 L 4337.421875 2832.96875 C 4589.808594 2919.160156 4971.21875 3049.410156 5382.910156 2950.929688 C 5411.128906 2944.179688 5439.121094 2936.429688 5466.871094 2927.679688 "/>
</g>
<g clip-path="url(#clip-27)">
<path fill-rule="nonzero" fill="rgb(42.09137%, 57.756042%, 83.02002%)" fill-opacity="1" d="M 5466.871094 3008.660156 L 5466.871094 3022.390625 C 5454.210938 3025.839844 5441.519531 3029.089844 5428.800781 3032.128906 C 5245.21875 3076.039062 5053.429688 3079.601562 4842.460938 3043.019531 C 4663.359375 3011.949219 4504.011719 2957.539062 4375.96875 2913.820312 L 4372.601562 2912.671875 C 4115.359375 2824.839844 3897.820312 2872.421875 3621.691406 3076.949219 C 3525.679688 3148.058594 3421.988281 3238.171875 3303.449219 3352.460938 L 3284.351562 3352.460938 C 3410.210938 3230.691406 3517.28125 3137.820312 3613.820312 3066.308594 C 3758.96875 2958.808594 3883.570312 2896.648438 4005.96875 2870.679688 C 4125.710938 2845.261719 4243.570312 2854.628906 4376.871094 2900.148438 L 4380.238281 2901.300781 C 4632.621094 2987.480469 5014.039062 3117.71875 5425.730469 3019.261719 C 5439.5 3015.96875 5453.210938 3012.429688 5466.871094 3008.660156 "/>
</g>
<g clip-path="url(#clip-28)">
<path fill-rule="nonzero" fill="rgb(42.09137%, 57.756042%, 83.02002%)" fill-opacity="1" d="M 5466.871094 3087.988281 L 5466.871094 3101.578125 C 5284.730469 3144.429688 5094.421875 3147.609375 4885.28125 3111.351562 C 4706.171875 3080.289062 4546.820312 3025.871094 4418.78125 2982.148438 L 4415.410156 2981 C 4094.550781 2871.441406 3835.210938 2972.898438 3428.171875 3352.460938 L 3409.398438 3352.460938 C 3502.421875 3265.179688 3584.539062 3195.109375 3659.820312 3138.519531 C 3804.398438 3029.851562 3928.300781 2966.839844 4049.738281 2940.210938 C 4169.058594 2914.058594 4286.621094 2923.039062 4419.679688 2968.480469 L 4423.050781 2969.628906 C 4675.109375 3055.691406 5055.820312 3185.710938 5466.871094 3087.988281 "/>
</g>
<g clip-path="url(#clip-29)">
<path fill-rule="nonzero" fill="rgb(42.09137%, 57.756042%, 83.02002%)" fill-opacity="1" d="M 5466.871094 3165.699219 L 5466.871094 3179.21875 C 5297.710938 3213.019531 5120.910156 3213.109375 4928.089844 3179.679688 C 4748.980469 3148.621094 4589.640625 3094.199219 4461.609375 3050.480469 L 4458.230469 3049.328125 C 4200.230469 2961.230469 3991.53125 3009.429688 3713.851562 3221.230469 C 3663.589844 3259.570312 3611.25 3303.199219 3556.101562 3352.460938 L 3536.28125 3352.460938 C 3595.75 3298.917969 3651.96875 3251.789062 3705.828125 3210.710938 C 3849.828125 3100.878906 3973.03125 3037.019531 4093.53125 3009.75 C 4212.410156 2982.851562 4329.648438 2991.449219 4462.5 3036.800781 L 4465.878906 3037.960938 C 4709.140625 3121.03125 5072.289062 3245.039062 5466.871094 3165.699219 "/>
</g>
<g clip-path="url(#clip-30)">
<path fill-rule="nonzero" fill="rgb(42.09137%, 57.756042%, 83.02002%)" fill-opacity="1" d="M 5466.871094 3241.878906 L 5466.871094 3255.351562 C 5310.699219 3281.128906 5147.519531 3278.628906 4970.921875 3248.011719 C 4791.800781 3216.949219 4632.449219 3162.53125 4504.421875 3118.808594 L 4501.039062 3117.660156 C 4244.339844 3030 4036.550781 3079.269531 3759.941406 3293.390625 C 3736.140625 3311.808594 3711.820312 3331.488281 3686.890625 3352.460938 L 3666.410156 3352.460938 C 3696.058594 3327.21875 3724.46875 3304.109375 3751.839844 3282.917969 C 3895.25 3171.910156 4017.738281 3107.210938 4137.308594 3079.289062 C 4255.769531 3051.640625 4372.699219 3059.859375 4505.320312 3105.128906 L 4508.691406 3106.28125 C 4743.140625 3186.339844 5088.910156 3304.417969 5466.871094 3241.878906 "/>
</g>
<g clip-path="url(#clip-31)">
<path fill-rule="nonzero" fill="rgb(42.09137%, 57.756042%, 83.02002%)" fill-opacity="1" d="M 5466.871094 3316.558594 L 5466.871094 3330.019531 C 5323.699219 3348.761719 5174.261719 3344.167969 5013.730469 3316.328125 C 4834.609375 3285.28125 4675.261719 3230.851562 4547.230469 3187.140625 L 4543.871094 3185.988281 C 4293.480469 3100.480469 4090.101562 3147.058594 3822.808594 3352.460938 L 3801.230469 3352.460938 C 3943.101562 3241.519531 4064.191406 3176.710938 4182.300781 3148.550781 C 4299.929688 3120.488281 4416.160156 3128.398438 4548.140625 3173.460938 L 4551.511719 3174.609375 C 4777.070312 3251.640625 5105.691406 3363.859375 5466.871094 3316.558594 "/>
</g>
<g clip-path="url(#clip-32)">
<path fill-rule="nonzero" fill="rgb(42.09137%, 57.756042%, 83.02002%)" fill-opacity="1" d="M 4963.410156 3352.460938 L 4905.558594 3352.460938 C 4787.390625 3322.839844 4680.851562 3286.46875 4590.050781 3255.46875 L 4586.679688 3254.308594 C 4368.53125 3179.820312 4187.699219 3206.570312 3968.238281 3352.460938 L 3944.628906 3352.460938 C 4048.101562 3281.628906 4141.320312 3237.820312 4233.011719 3216.421875 C 4347.921875 3189.589844 4461.660156 3197.640625 4590.949219 3241.789062 L 4594.320312 3242.941406 C 4697.898438 3278.308594 4823.199219 3321.101562 4963.410156 3352.460938 "/>
</g>
<g clip-path="url(#clip-33)">
<path fill-rule="nonzero" fill="rgb(42.09137%, 57.756042%, 83.02002%)" fill-opacity="1" d="M 4760.160156 3352.460938 L 4717.640625 3352.460938 C 4688.070312 3342.640625 4659.769531 3332.980469 4632.859375 3323.789062 L 4629.5 3322.640625 C 4452.820312 3262.308594 4301.699219 3269.050781 4134.359375 3352.460938 L 4105.898438 3352.460938 C 4167.070312 3319.910156 4225.441406 3297.609375 4283.320312 3284.359375 C 4395.660156 3258.660156 4507.019531 3266.828125 4633.769531 3310.121094 L 4637.128906 3311.269531 C 4675.300781 3324.308594 4716.429688 3338.351562 4760.160156 3352.460938 "/>
</g>
<g clip-path="url(#clip-34)">
<path fill-rule="nonzero" fill="rgb(42.09137%, 57.756042%, 83.02002%)" fill-opacity="1" d="M 4583.421875 3352.460938 L 4487.640625 3352.460938 C 4465.691406 3351.160156 4443.921875 3351.148438 4422.25 3352.460938 L 4332.929688 3352.460938 C 4333.03125 3352.441406 4333.140625 3352.410156 4333.238281 3352.390625 C 4414.878906 3334.058594 4496.078125 3333.917969 4583.421875 3352.460938 "/>
</g>
</svg>
