<?xml version="1.0" encoding="UTF-8"?>
<svg width="1258px" height="286px" viewBox="0 0 1258 286" version="1.1" xmlns="http://www.w3.org/2000/svg" xmlns:xlink="http://www.w3.org/1999/xlink">
    <title>Logo</title>
    <g id="Page-1" stroke="none" stroke-width="1" fill="none" fill-rule="evenodd">
        <g id="logo-white-horizontal" transform="translate(-388.785425, -238.000000)">
            <g id="Logo" transform="translate(389.000000, 238.000000)">
                <text id="BEEKAI" font-family="HelveticaNeue-Bold, Helvetica Neue" font-size="240" font-weight="bold" fill="#FFFFFF">
                    <tspan x="368.26" y="234">BEEKAI</tspan>
                </text>
                <rect id="Rectangle" fill="#FFFFFF" x="0" y="2" width="282" height="282" rx="141"></rect>
                <path d="M203.928591,191.935579 C183.907755,142.353822 160.56586,129.200443 160.56586,104.435579 L160.56586,75.2673353 L165.469501,75.2673353 C168.166975,75.2531461 170.344796,73.0774704 170.344796,70.3957137 L170.344796,60.6855785 C170.344796,59.3943623 169.829867,58.1551731 168.908663,57.2423353 C167.986879,56.325993 166.740146,55.8139535 165.441156,55.8139535 L116.52758,55.8139535 C115.22859,55.8139535 113.981857,56.325993 113.060074,57.2423353 C112.13887,58.1551731 111.62394,59.3943623 111.62394,60.6855785 L111.62394,70.3957137 C111.62394,71.6869299 112.13887,72.9261191 113.060074,73.8389569 C113.981857,74.7552992 115.22859,75.268869 116.52758,75.2673353 L121.431221,75.2673353 L121.431221,104.435579 C121.431221,129.200443 97.9428781,142.353822 78.0684902,191.935579 C71.6673027,207.713957 55.317111,230.813953 140.984368,230.813953 C226.651625,230.813953 210.301434,207.713957 203.928591,191.935579 Z M187.956329,208.938957 C181.087453,210.9822 167.406391,213.313957 140.984368,213.313957 C114.562345,213.313957 100.734835,210.9822 94.0124073,208.938957 C92.8510159,208.484574 91.9247229,207.575969 91.4472082,206.422741 C90.9709129,205.273828 90.986282,203.979586 91.4897253,202.842335 C94.8805642,192.238454 99.4606906,182.053429 105.142442,172.4822 C123.6988,141.767335 142.954328,177.325443 158.954934,177.325443 C174.955541,177.325443 170.699105,162.1572 176.802673,172.4822 C182.528311,182.050443 187.153228,192.224092 190.601838,202.813957 C191.108302,203.969351 191.111725,205.283637 190.611286,206.44166 C190.110529,207.600443 189.151532,208.503822 187.961053,208.938957 L187.956329,208.938957 Z" id="Shape" fill="#081229" fill-rule="nonzero"></path>
            </g>
        </g>
    </g>
</svg>